<svg xmlns="http://www.w3.org/2000/svg" xmlns:xlink="http://www.w3.org/1999/xlink" xmlns:inkscape="http://www.inkscape.org/namespaces/inkscape" version="1.1" width="90.952" height="90.952" viewBox="0 0 90.952 90.952">
<path transform="matrix(1,0,0,-1,45.476,300.594)" d="M1.99255 283.4681C1.99255 284.56858 1.10046 285.46067 0 285.46067-1.10046 285.46067-1.99255 284.56858-1.99255 283.4681-1.99255 282.3676-1.10046 281.47554 0 281.47554 1.10046 281.47554 1.99255 282.3676 1.99255 283.4681ZM0 283.4681" fill="#ffffff"/>
<path transform="matrix(1,0,0,-1,45.476,300.594)" stroke-width=".3985" stroke-linecap="butt" stroke-miterlimit="10" stroke-linejoin="miter" fill="none" stroke="#ffffff" d="M1.99255 283.4681C1.99255 284.56858 1.10046 285.46067 0 285.46067-1.10046 285.46067-1.99255 284.56858-1.99255 283.4681-1.99255 282.3676-1.10046 281.47554 0 281.47554 1.10046 281.47554 1.99255 282.3676 1.99255 283.4681ZM0 283.4681"/>
<path transform="matrix(1,0,0,-1,28.747004,62.204996)" d="M1.99255-14.17339C1.99255-13.07292 1.10046-12.18083 0-12.18083-1.10046-12.18083-1.99255-13.07292-1.99255-14.17339-1.99255-15.27386-1.10046-16.16594 0-16.16594 1.10046-16.16594 1.99255-15.27386 1.99255-14.17339ZM0-14.17339"/>
<path transform="matrix(1,0,0,-1,28.747004,62.204996)" stroke-width=".3985" stroke-linecap="butt" stroke-miterlimit="10" stroke-linejoin="miter" fill="none" stroke="#000000" d="M1.99255-14.17339C1.99255-13.07292 1.10046-12.18083 0-12.18083-1.10046-12.18083-1.99255-13.07292-1.99255-14.17339-1.99255-15.27386-1.10046-16.16594 0-16.16594 1.10046-16.16594 1.99255-15.27386 1.99255-14.17339ZM0-14.17339"/>
<path transform="matrix(1,0,0,-1,28.747004,62.204996)" d="M-12.18083 0C-12.18083 1.10046-13.07292 1.99255-14.17339 1.99255-15.27386 1.99255-16.16594 1.10046-16.16594 0-16.16594-1.10046-15.27386-1.99255-14.17339-1.99255-13.07292-1.99255-12.18083-1.10046-12.18083 0ZM-14.17339 0"/>
<path transform="matrix(1,0,0,-1,28.747004,62.204996)" stroke-width=".3985" stroke-linecap="butt" stroke-miterlimit="10" stroke-linejoin="miter" fill="none" stroke="#000000" d="M-12.18083 0C-12.18083 1.10046-13.07292 1.99255-14.17339 1.99255-15.27386 1.99255-16.16594 1.10046-16.16594 0-16.16594-1.10046-15.27386-1.99255-14.17339-1.99255-13.07292-1.99255-12.18083-1.10046-12.18083 0ZM-14.17339 0"/>
<path transform="matrix(1,0,0,-1,28.747004,62.204996)" d="M1.99255 0C1.99255 1.10046 1.10046 1.99255 0 1.99255-1.10046 1.99255-1.99255 1.10046-1.99255 0-1.99255-1.10046-1.10046-1.99255 0-1.99255 1.10046-1.99255 1.99255-1.10046 1.99255 0ZM0 0"/>
<path transform="matrix(1,0,0,-1,28.747004,62.204996)" stroke-width=".3985" stroke-linecap="butt" stroke-miterlimit="10" stroke-linejoin="miter" fill="none" stroke="#000000" d="M1.99255 0C1.99255 1.10046 1.10046 1.99255 0 1.99255-1.10046 1.99255-1.99255 1.10046-1.99255 0-1.99255-1.10046-1.10046-1.99255 0-1.99255 1.10046-1.99255 1.99255-1.10046 1.99255 0ZM0 0"/>
<path transform="matrix(1,0,0,-1,28.747004,62.204996)" stroke-width=".3985" stroke-linecap="butt" stroke-miterlimit="10" stroke-linejoin="miter" fill="none" stroke="#000000" d="M0 0 28.3468 28.3468"/>
<path transform="matrix(1,0,0,-1,28.747004,62.204996)" stroke-width=".3985" stroke-linecap="butt" stroke-miterlimit="10" stroke-linejoin="miter" fill="none" stroke="#000000" d="M0 0 28.3468 56.69362"/>
<path transform="matrix(1,0,0,-1,28.747004,62.204996)" d="M1.99255 28.3468C1.99255 29.44728 1.10046 30.33936 0 30.33936-1.10046 30.33936-1.99255 29.44728-1.99255 28.3468-1.99255 27.24634-1.10046 26.35425 0 26.35425 1.10046 26.35425 1.99255 27.24634 1.99255 28.3468ZM0 28.3468"/>
<path transform="matrix(1,0,0,-1,28.747004,62.204996)" stroke-width=".3985" stroke-linecap="butt" stroke-miterlimit="10" stroke-linejoin="miter" fill="none" stroke="#000000" d="M1.99255 28.3468C1.99255 29.44728 1.10046 30.33936 0 30.33936-1.10046 30.33936-1.99255 29.44728-1.99255 28.3468-1.99255 27.24634-1.10046 26.35425 0 26.35425 1.10046 26.35425 1.99255 27.24634 1.99255 28.3468ZM0 28.3468"/>
<path transform="matrix(1,0,0,-1,28.747004,62.204996)" stroke-width=".3985" stroke-linecap="butt" stroke-miterlimit="10" stroke-linejoin="miter" fill="none" stroke="#000000" d="M0 28.3468 28.3468 56.69362"/>
<path transform="matrix(1,0,0,-1,28.747004,62.204996)" stroke-width=".3985" stroke-linecap="butt" stroke-miterlimit="10" stroke-linejoin="miter" fill="none" stroke="#000000" d="M0 28.3468 28.3468 0"/>
<path transform="matrix(1,0,0,-1,28.747004,62.204996)" d="M1.99255 56.69362C1.99255 57.79408 1.10046 58.68617 0 58.68617-1.10046 58.68617-1.99255 57.79408-1.99255 56.69362-1.99255 55.59314-1.10046 54.70107 0 54.70107 1.10046 54.70107 1.99255 55.59314 1.99255 56.69362ZM0 56.69362"/>
<path transform="matrix(1,0,0,-1,28.747004,62.204996)" stroke-width=".3985" stroke-linecap="butt" stroke-miterlimit="10" stroke-linejoin="miter" fill="none" stroke="#000000" d="M1.99255 56.69362C1.99255 57.79408 1.10046 58.68617 0 58.68617-1.10046 58.68617-1.99255 57.79408-1.99255 56.69362-1.99255 55.59314-1.10046 54.70107 0 54.70107 1.10046 54.70107 1.99255 55.59314 1.99255 56.69362ZM0 56.69362"/>
<path transform="matrix(1,0,0,-1,28.747004,62.204996)" stroke-width=".3985" stroke-linecap="butt" stroke-miterlimit="10" stroke-linejoin="miter" fill="none" stroke="#000000" d="M0 56.69362 28.3468 0"/>
<path transform="matrix(1,0,0,-1,28.747004,62.204996)" stroke-width=".3985" stroke-linecap="butt" stroke-miterlimit="10" stroke-linejoin="miter" fill="none" stroke="#000000" d="M0 56.69362 28.3468 28.3468"/>
<path transform="matrix(1,0,0,-1,28.747004,62.204996)" d="M30.33936-14.17339C30.33936-13.07292 29.44728-12.18083 28.3468-12.18083 27.24634-12.18083 26.35425-13.07292 26.35425-14.17339 26.35425-15.27386 27.24634-16.16594 28.3468-16.16594 29.44728-16.16594 30.33936-15.27386 30.33936-14.17339ZM28.3468-14.17339"/>
<path transform="matrix(1,0,0,-1,28.747004,62.204996)" stroke-width=".3985" stroke-linecap="butt" stroke-miterlimit="10" stroke-linejoin="miter" fill="none" stroke="#000000" d="M30.33936-14.17339C30.33936-13.07292 29.44728-12.18083 28.3468-12.18083 27.24634-12.18083 26.35425-13.07292 26.35425-14.17339 26.35425-15.27386 27.24634-16.16594 28.3468-16.16594 29.44728-16.16594 30.33936-15.27386 30.33936-14.17339ZM28.3468-14.17339"/>
<path transform="matrix(1,0,0,-1,28.747004,62.204996)" d="M-12.18083 28.3468C-12.18083 29.44728-13.07292 30.33936-14.17339 30.33936-15.27386 30.33936-16.16594 29.44728-16.16594 28.3468-16.16594 27.24634-15.27386 26.35425-14.17339 26.35425-13.07292 26.35425-12.18083 27.24634-12.18083 28.3468ZM-14.17339 28.3468"/>
<path transform="matrix(1,0,0,-1,28.747004,62.204996)" stroke-width=".3985" stroke-linecap="butt" stroke-miterlimit="10" stroke-linejoin="miter" fill="none" stroke="#000000" d="M-12.18083 28.3468C-12.18083 29.44728-13.07292 30.33936-14.17339 30.33936-15.27386 30.33936-16.16594 29.44728-16.16594 28.3468-16.16594 27.24634-15.27386 26.35425-14.17339 26.35425-13.07292 26.35425-12.18083 27.24634-12.18083 28.3468ZM-14.17339 28.3468"/>
<path transform="matrix(1,0,0,-1,28.747004,62.204996)" d="M30.33936 0C30.33936 1.10046 29.44728 1.99255 28.3468 1.99255 27.24634 1.99255 26.35425 1.10046 26.35425 0 26.35425-1.10046 27.24634-1.99255 28.3468-1.99255 29.44728-1.99255 30.33936-1.10046 30.33936 0ZM28.3468 0"/>
<path transform="matrix(1,0,0,-1,28.747004,62.204996)" stroke-width=".3985" stroke-linecap="butt" stroke-miterlimit="10" stroke-linejoin="miter" fill="none" stroke="#000000" d="M30.33936 0C30.33936 1.10046 29.44728 1.99255 28.3468 1.99255 27.24634 1.99255 26.35425 1.10046 26.35425 0 26.35425-1.10046 27.24634-1.99255 28.3468-1.99255 29.44728-1.99255 30.33936-1.10046 30.33936 0ZM28.3468 0"/>
<path transform="matrix(1,0,0,-1,28.747004,62.204996)" stroke-width=".3985" stroke-linecap="butt" stroke-miterlimit="10" stroke-linejoin="miter" fill="none" stroke="#000000" d="M28.3468 0 56.69362 28.3468"/>
<path transform="matrix(1,0,0,-1,28.747004,62.204996)" stroke-width=".3985" stroke-linecap="butt" stroke-miterlimit="10" stroke-linejoin="miter" fill="none" stroke="#000000" d="M28.3468 0 56.69362 56.69362"/>
<path transform="matrix(1,0,0,-1,28.747004,62.204996)" d="M30.33936 28.3468C30.33936 29.44728 29.44728 30.33936 28.3468 30.33936 27.24634 30.33936 26.35425 29.44728 26.35425 28.3468 26.35425 27.24634 27.24634 26.35425 28.3468 26.35425 29.44728 26.35425 30.33936 27.24634 30.33936 28.3468ZM28.3468 28.3468"/>
<path transform="matrix(1,0,0,-1,28.747004,62.204996)" stroke-width=".3985" stroke-linecap="butt" stroke-miterlimit="10" stroke-linejoin="miter" fill="none" stroke="#000000" d="M30.33936 28.3468C30.33936 29.44728 29.44728 30.33936 28.3468 30.33936 27.24634 30.33936 26.35425 29.44728 26.35425 28.3468 26.35425 27.24634 27.24634 26.35425 28.3468 26.35425 29.44728 26.35425 30.33936 27.24634 30.33936 28.3468ZM28.3468 28.3468"/>
<path transform="matrix(1,0,0,-1,28.747004,62.204996)" stroke-width=".3985" stroke-linecap="butt" stroke-miterlimit="10" stroke-linejoin="miter" fill="none" stroke="#000000" d="M28.3468 28.3468 56.69362 56.69362"/>
<path transform="matrix(1,0,0,-1,28.747004,62.204996)" stroke-width=".3985" stroke-linecap="butt" stroke-miterlimit="10" stroke-linejoin="miter" fill="none" stroke="#000000" d="M28.3468 28.3468 56.69362 0"/>
<path transform="matrix(1,0,0,-1,28.747004,62.204996)" d="M30.33936 56.69362C30.33936 57.79408 29.44728 58.68617 28.3468 58.68617 27.24634 58.68617 26.35425 57.79408 26.35425 56.69362 26.35425 55.59314 27.24634 54.70107 28.3468 54.70107 29.44728 54.70107 30.33936 55.59314 30.33936 56.69362ZM28.3468 56.69362"/>
<path transform="matrix(1,0,0,-1,28.747004,62.204996)" stroke-width=".3985" stroke-linecap="butt" stroke-miterlimit="10" stroke-linejoin="miter" fill="none" stroke="#000000" d="M30.33936 56.69362C30.33936 57.79408 29.44728 58.68617 28.3468 58.68617 27.24634 58.68617 26.35425 57.79408 26.35425 56.69362 26.35425 55.59314 27.24634 54.70107 28.3468 54.70107 29.44728 54.70107 30.33936 55.59314 30.33936 56.69362ZM28.3468 56.69362"/>
<path transform="matrix(1,0,0,-1,28.747004,62.204996)" stroke-width=".3985" stroke-linecap="butt" stroke-miterlimit="10" stroke-linejoin="miter" fill="none" stroke="#000000" d="M28.3468 56.69362 56.69362 0"/>
<path transform="matrix(1,0,0,-1,28.747004,62.204996)" stroke-width=".3985" stroke-linecap="butt" stroke-miterlimit="10" stroke-linejoin="miter" fill="none" stroke="#000000" d="M28.3468 56.69362 56.69362 28.3468"/>
<path transform="matrix(1,0,0,-1,28.747004,62.204996)" d="M58.68617-14.17339C58.68617-13.07292 57.79408-12.18083 56.69362-12.18083 55.59314-12.18083 54.70107-13.07292 54.70107-14.17339 54.70107-15.27386 55.59314-16.16594 56.69362-16.16594 57.79408-16.16594 58.68617-15.27386 58.68617-14.17339ZM56.69362-14.17339"/>
<path transform="matrix(1,0,0,-1,28.747004,62.204996)" stroke-width=".3985" stroke-linecap="butt" stroke-miterlimit="10" stroke-linejoin="miter" fill="none" stroke="#000000" d="M58.68617-14.17339C58.68617-13.07292 57.79408-12.18083 56.69362-12.18083 55.59314-12.18083 54.70107-13.07292 54.70107-14.17339 54.70107-15.27386 55.59314-16.16594 56.69362-16.16594 57.79408-16.16594 58.68617-15.27386 58.68617-14.17339ZM56.69362-14.17339"/>
<path transform="matrix(1,0,0,-1,28.747004,62.204996)" d="M-12.18083 56.69362C-12.18083 57.79408-13.07292 58.68617-14.17339 58.68617-15.27386 58.68617-16.16594 57.79408-16.16594 56.69362-16.16594 55.59314-15.27386 54.70107-14.17339 54.70107-13.07292 54.70107-12.18083 55.59314-12.18083 56.69362ZM-14.17339 56.69362"/>
<path transform="matrix(1,0,0,-1,28.747004,62.204996)" stroke-width=".3985" stroke-linecap="butt" stroke-miterlimit="10" stroke-linejoin="miter" fill="none" stroke="#000000" d="M-12.18083 56.69362C-12.18083 57.79408-13.07292 58.68617-14.17339 58.68617-15.27386 58.68617-16.16594 57.79408-16.16594 56.69362-16.16594 55.59314-15.27386 54.70107-14.17339 54.70107-13.07292 54.70107-12.18083 55.59314-12.18083 56.69362ZM-14.17339 56.69362"/>
<path transform="matrix(1,0,0,-1,28.747004,62.204996)" d="M58.68617 0C58.68617 1.10046 57.79408 1.99255 56.69362 1.99255 55.59314 1.99255 54.70107 1.10046 54.70107 0 54.70107-1.10046 55.59314-1.99255 56.69362-1.99255 57.79408-1.99255 58.68617-1.10046 58.68617 0ZM56.69362 0"/>
<path transform="matrix(1,0,0,-1,28.747004,62.204996)" stroke-width=".3985" stroke-linecap="butt" stroke-miterlimit="10" stroke-linejoin="miter" fill="none" stroke="#000000" d="M58.68617 0C58.68617 1.10046 57.79408 1.99255 56.69362 1.99255 55.59314 1.99255 54.70107 1.10046 54.70107 0 54.70107-1.10046 55.59314-1.99255 56.69362-1.99255 57.79408-1.99255 58.68617-1.10046 58.68617 0ZM56.69362 0"/>
<path transform="matrix(1,0,0,-1,28.747004,62.204996)" stroke-width=".3985" stroke-linecap="butt" stroke-miterlimit="10" stroke-linejoin="miter" fill="none" stroke="#000000" d="M56.69362 0 0 28.3468"/>
<path transform="matrix(1,0,0,-1,28.747004,62.204996)" stroke-width=".3985" stroke-linecap="butt" stroke-miterlimit="10" stroke-linejoin="miter" fill="none" stroke="#000000" d="M56.69362 0 0 56.69362"/>
<path transform="matrix(1,0,0,-1,28.747004,62.204996)" d="M58.68617 28.3468C58.68617 29.44728 57.79408 30.33936 56.69362 30.33936 55.59314 30.33936 54.70107 29.44728 54.70107 28.3468 54.70107 27.24634 55.59314 26.35425 56.69362 26.35425 57.79408 26.35425 58.68617 27.24634 58.68617 28.3468ZM56.69362 28.3468"/>
<path transform="matrix(1,0,0,-1,28.747004,62.204996)" stroke-width=".3985" stroke-linecap="butt" stroke-miterlimit="10" stroke-linejoin="miter" fill="none" stroke="#000000" d="M58.68617 28.3468C58.68617 29.44728 57.79408 30.33936 56.69362 30.33936 55.59314 30.33936 54.70107 29.44728 54.70107 28.3468 54.70107 27.24634 55.59314 26.35425 56.69362 26.35425 57.79408 26.35425 58.68617 27.24634 58.68617 28.3468ZM56.69362 28.3468"/>
<path transform="matrix(1,0,0,-1,28.747004,62.204996)" stroke-width=".3985" stroke-linecap="butt" stroke-miterlimit="10" stroke-linejoin="miter" fill="none" stroke="#000000" d="M56.69362 28.3468 0 56.69362"/>
<path transform="matrix(1,0,0,-1,28.747004,62.204996)" stroke-width=".3985" stroke-linecap="butt" stroke-miterlimit="10" stroke-linejoin="miter" fill="none" stroke="#000000" d="M56.69362 28.3468 0 0"/>
<path transform="matrix(1,0,0,-1,28.747004,62.204996)" d="M58.68617 56.69362C58.68617 57.79408 57.79408 58.68617 56.69362 58.68617 55.59314 58.68617 54.70107 57.79408 54.70107 56.69362 54.70107 55.59314 55.59314 54.70107 56.69362 54.70107 57.79408 54.70107 58.68617 55.59314 58.68617 56.69362ZM56.69362 56.69362"/>
<path transform="matrix(1,0,0,-1,28.747004,62.204996)" stroke-width=".3985" stroke-linecap="butt" stroke-miterlimit="10" stroke-linejoin="miter" fill="none" stroke="#000000" d="M58.68617 56.69362C58.68617 57.79408 57.79408 58.68617 56.69362 58.68617 55.59314 58.68617 54.70107 57.79408 54.70107 56.69362 54.70107 55.59314 55.59314 54.70107 56.69362 54.70107 57.79408 54.70107 58.68617 55.59314 58.68617 56.69362ZM56.69362 56.69362"/>
<path transform="matrix(1,0,0,-1,28.747004,62.204996)" stroke-width=".3985" stroke-linecap="butt" stroke-miterlimit="10" stroke-linejoin="miter" fill="none" stroke="#000000" d="M56.69362 56.69362 0 0"/>
<path transform="matrix(1,0,0,-1,28.747004,62.204996)" stroke-width=".3985" stroke-linecap="butt" stroke-miterlimit="10" stroke-linejoin="miter" fill="none" stroke="#000000" d="M56.69362 56.69362 0 28.3468"/>
<path transform="matrix(1,0,0,-1,28.747004,62.204996)" stroke-width=".79701" stroke-linecap="butt" stroke-dasharray="2.98883,2.98883" stroke-miterlimit="10" stroke-linejoin="miter" fill="none" stroke="#000000" d="M0 0"/>
<path transform="matrix(1,0,0,-1,28.747004,62.204996)" stroke-width=".79701" stroke-linecap="butt" stroke-dasharray="2.98883,2.98883" stroke-miterlimit="10" stroke-linejoin="miter" fill="none" stroke="#000000" d="M0 0C30.32257 8.12495 48.56865 26.37103 56.69362 56.69362"/>
<path transform="matrix(1,0,0,-1,28.747004,62.204996)" stroke-width=".79701" stroke-linecap="butt" stroke-dasharray="2.98883,2.98883" stroke-miterlimit="10" stroke-linejoin="miter" fill="none" stroke="#000000" d="M0 56.69362"/>
<path transform="matrix(1,0,0,-1,28.747004,62.204996)" stroke-width=".79701" stroke-linecap="butt" stroke-dasharray="2.98883,2.98883" stroke-miterlimit="10" stroke-linejoin="miter" fill="none" stroke="#000000" d="M0 56.69362C8.12495 26.37103 26.37103 8.12495 56.69362 0"/>
<path transform="matrix(1,0,0,-1,28.747004,62.204996)" stroke-width=".3985" stroke-linecap="butt" stroke-miterlimit="10" stroke-linejoin="miter" fill="none" stroke="#000000" d="M0-14.17339H56.69362"/>
<path transform="matrix(1,0,0,-1,28.747004,62.204996)" stroke-width=".3985" stroke-linecap="butt" stroke-miterlimit="10" stroke-linejoin="miter" fill="none" stroke="#000000" d="M0-14.17339"/>
<path transform="matrix(1,0,0,-1,28.747004,62.204996)" stroke-width=".3985" stroke-linecap="butt" stroke-miterlimit="10" stroke-linejoin="miter" fill="none" stroke="#000000" d="M0-14.17339C19.14682-25.22778 37.54678-25.22778 56.69362-14.17339"/>
<path transform="matrix(1,0,0,-1,28.747004,62.204996)" stroke-width=".3985" stroke-linecap="butt" stroke-miterlimit="10" stroke-linejoin="miter" fill="none" stroke="#000000" d="M-14.17339 56.69362V0"/>
<path transform="matrix(1,0,0,-1,28.747004,62.204996)" stroke-width=".3985" stroke-linecap="butt" stroke-miterlimit="10" stroke-linejoin="miter" fill="none" stroke="#000000" d="M-14.17339 56.69362"/>
<path transform="matrix(1,0,0,-1,28.747004,62.204996)" stroke-width=".3985" stroke-linecap="butt" stroke-miterlimit="10" stroke-linejoin="miter" fill="none" stroke="#000000" d="M-14.17339 56.69362C-25.22778 37.54678-25.22778 19.14682-14.17339 0"/>
<path transform="matrix(1,0,0,-1,28.747004,62.204996)" stroke-width=".3985" stroke-linecap="butt" stroke-miterlimit="10" stroke-linejoin="miter" fill="none" stroke="#000000" d="M28.3468 0V0"/>
<text xml:space="preserve" transform="matrix(1 0 -0 1 .0000038146974 90.95199)" font-size="4.9813" font-family="CMMI5" font-style="italic"><tspan y="-21.824" x="43.204">K</tspan></text>
<text xml:space="preserve" transform="matrix(1 0 -0 1 .0000038146974 90.95199)" font-size="4.9813" font-family="CMR5"><tspan y="-20.328999" x="48.877">3</tspan></text>
<text xml:space="preserve" transform="matrix(1 0 -0 1 .0000038146974 90.95199)" font-size="4.9813" font-family="CMSY5" font-style="italic"><tspan y="-21.824" x="54.395">&#x00d7;</tspan></text>
<text xml:space="preserve" transform="matrix(1 0 -0 1 .0000038146974 90.95199)" font-size="4.9813" font-family="CMMI5" font-style="italic"><tspan y="-21.824" x="61.422">K</tspan></text>
<text xml:space="preserve" transform="matrix(1 0 -0 1 .0000038146974 90.95199)" font-size="4.9813" font-family="CMR5"><tspan y="-20.328999" x="67.095">3</tspan></text>
</svg>
