<svg xmlns="http://www.w3.org/2000/svg" xmlns:xlink="http://www.w3.org/1999/xlink" xmlns:inkscape="http://www.inkscape.org/namespaces/inkscape" version="1.1" width="76.582" height="86.807" viewBox="0 0 76.582 86.807">
<path transform="matrix(1,0,0,-1,38.291,298.521)" d="M1.99255 283.4681C1.99255 284.56858 1.10046 285.46067 0 285.46067-1.10046 285.46067-1.99255 284.56858-1.99255 283.4681-1.99255 282.3676-1.10046 281.47554 0 281.47554 1.10046 281.47554 1.99255 282.3676 1.99255 283.4681ZM0 283.4681" fill="#ffffff"/>
<path transform="matrix(1,0,0,-1,38.291,298.521)" stroke-width=".3985" stroke-linecap="butt" stroke-miterlimit="10" stroke-linejoin="miter" fill="none" stroke="#ffffff" d="M1.99255 283.4681C1.99255 284.56858 1.10046 285.46067 0 285.46067-1.10046 285.46067-1.99255 284.56858-1.99255 283.4681-1.99255 282.3676-1.10046 281.47554 0 281.47554 1.10046 281.47554 1.99255 282.3676 1.99255 283.4681ZM0 283.4681"/>
<path transform="matrix(1,0,0,-1,14.376999,71.06999)" stroke-width=".3985" stroke-linecap="butt" stroke-miterlimit="10" stroke-linejoin="miter" fill="none" stroke="#000000" d="M0 0V56.69362"/>
<path transform="matrix(1,0,0,-1,14.376999,71.06999)" d="M1.99255 0C1.99255 1.10046 1.10046 1.99255 0 1.99255-1.10046 1.99255-1.99255 1.10046-1.99255 0-1.99255-1.10046-1.10046-1.99255 0-1.99255 1.10046-1.99255 1.99255-1.10046 1.99255 0ZM0 0"/>
<path transform="matrix(1,0,0,-1,14.376999,71.06999)" stroke-width=".3985" stroke-linecap="butt" stroke-miterlimit="10" stroke-linejoin="miter" fill="none" stroke="#000000" d="M1.99255 0C1.99255 1.10046 1.10046 1.99255 0 1.99255-1.10046 1.99255-1.99255 1.10046-1.99255 0-1.99255-1.10046-1.10046-1.99255 0-1.99255 1.10046-1.99255 1.99255-1.10046 1.99255 0ZM0 0"/>
<path transform="matrix(1,0,0,-1,14.376999,71.06999)" stroke-width=".3985" stroke-linecap="butt" stroke-miterlimit="10" stroke-linejoin="miter" fill="none" stroke="#000000" d="M0 0H56.69362"/>
<path transform="matrix(1,0,0,-1,14.376999,71.06999)" d="M1.99255 28.3468C1.99255 29.44728 1.10046 30.33936 0 30.33936-1.10046 30.33936-1.99255 29.44728-1.99255 28.3468-1.99255 27.24634-1.10046 26.35425 0 26.35425 1.10046 26.35425 1.99255 27.24634 1.99255 28.3468ZM0 28.3468"/>
<path transform="matrix(1,0,0,-1,14.376999,71.06999)" stroke-width=".3985" stroke-linecap="butt" stroke-miterlimit="10" stroke-linejoin="miter" fill="none" stroke="#000000" d="M1.99255 28.3468C1.99255 29.44728 1.10046 30.33936 0 30.33936-1.10046 30.33936-1.99255 29.44728-1.99255 28.3468-1.99255 27.24634-1.10046 26.35425 0 26.35425 1.10046 26.35425 1.99255 27.24634 1.99255 28.3468ZM0 28.3468"/>
<path transform="matrix(1,0,0,-1,14.376999,71.06999)" stroke-width=".3985" stroke-linecap="butt" stroke-miterlimit="10" stroke-linejoin="miter" fill="none" stroke="#000000" d="M0 28.3468H56.69362"/>
<path transform="matrix(1,0,0,-1,14.376999,71.06999)" d="M1.99255 56.69362C1.99255 57.79408 1.10046 58.68617 0 58.68617-1.10046 58.68617-1.99255 57.79408-1.99255 56.69362-1.99255 55.59314-1.10046 54.70107 0 54.70107 1.10046 54.70107 1.99255 55.59314 1.99255 56.69362ZM0 56.69362"/>
<path transform="matrix(1,0,0,-1,14.376999,71.06999)" stroke-width=".3985" stroke-linecap="butt" stroke-miterlimit="10" stroke-linejoin="miter" fill="none" stroke="#000000" d="M1.99255 56.69362C1.99255 57.79408 1.10046 58.68617 0 58.68617-1.10046 58.68617-1.99255 57.79408-1.99255 56.69362-1.99255 55.59314-1.10046 54.70107 0 54.70107 1.10046 54.70107 1.99255 55.59314 1.99255 56.69362ZM0 56.69362"/>
<path transform="matrix(1,0,0,-1,14.376999,71.06999)" stroke-width=".3985" stroke-linecap="butt" stroke-miterlimit="10" stroke-linejoin="miter" fill="none" stroke="#000000" d="M0 56.69362H56.69362"/>
<path transform="matrix(1,0,0,-1,14.376999,71.06999)" stroke-width=".3985" stroke-linecap="butt" stroke-miterlimit="10" stroke-linejoin="miter" fill="none" stroke="#000000" d="M28.3468 0V56.69362"/>
<path transform="matrix(1,0,0,-1,14.376999,71.06999)" d="M30.33936 0C30.33936 1.10046 29.44728 1.99255 28.3468 1.99255 27.24634 1.99255 26.35425 1.10046 26.35425 0 26.35425-1.10046 27.24634-1.99255 28.3468-1.99255 29.44728-1.99255 30.33936-1.10046 30.33936 0ZM28.3468 0"/>
<path transform="matrix(1,0,0,-1,14.376999,71.06999)" stroke-width=".3985" stroke-linecap="butt" stroke-miterlimit="10" stroke-linejoin="miter" fill="none" stroke="#000000" d="M30.33936 0C30.33936 1.10046 29.44728 1.99255 28.3468 1.99255 27.24634 1.99255 26.35425 1.10046 26.35425 0 26.35425-1.10046 27.24634-1.99255 28.3468-1.99255 29.44728-1.99255 30.33936-1.10046 30.33936 0ZM28.3468 0"/>
<path transform="matrix(1,0,0,-1,14.376999,71.06999)" stroke-width=".3985" stroke-linecap="butt" stroke-miterlimit="10" stroke-linejoin="miter" fill="none" stroke="#000000" d="M0 0H56.69362"/>
<path transform="matrix(1,0,0,-1,14.376999,71.06999)" d="M30.33936 28.3468C30.33936 29.44728 29.44728 30.33936 28.3468 30.33936 27.24634 30.33936 26.35425 29.44728 26.35425 28.3468 26.35425 27.24634 27.24634 26.35425 28.3468 26.35425 29.44728 26.35425 30.33936 27.24634 30.33936 28.3468ZM28.3468 28.3468"/>
<path transform="matrix(1,0,0,-1,14.376999,71.06999)" stroke-width=".3985" stroke-linecap="butt" stroke-miterlimit="10" stroke-linejoin="miter" fill="none" stroke="#000000" d="M30.33936 28.3468C30.33936 29.44728 29.44728 30.33936 28.3468 30.33936 27.24634 30.33936 26.35425 29.44728 26.35425 28.3468 26.35425 27.24634 27.24634 26.35425 28.3468 26.35425 29.44728 26.35425 30.33936 27.24634 30.33936 28.3468ZM28.3468 28.3468"/>
<path transform="matrix(1,0,0,-1,14.376999,71.06999)" stroke-width=".3985" stroke-linecap="butt" stroke-miterlimit="10" stroke-linejoin="miter" fill="none" stroke="#000000" d="M0 28.3468H56.69362"/>
<path transform="matrix(1,0,0,-1,14.376999,71.06999)" d="M30.33936 56.69362C30.33936 57.79408 29.44728 58.68617 28.3468 58.68617 27.24634 58.68617 26.35425 57.79408 26.35425 56.69362 26.35425 55.59314 27.24634 54.70107 28.3468 54.70107 29.44728 54.70107 30.33936 55.59314 30.33936 56.69362ZM28.3468 56.69362"/>
<path transform="matrix(1,0,0,-1,14.376999,71.06999)" stroke-width=".3985" stroke-linecap="butt" stroke-miterlimit="10" stroke-linejoin="miter" fill="none" stroke="#000000" d="M30.33936 56.69362C30.33936 57.79408 29.44728 58.68617 28.3468 58.68617 27.24634 58.68617 26.35425 57.79408 26.35425 56.69362 26.35425 55.59314 27.24634 54.70107 28.3468 54.70107 29.44728 54.70107 30.33936 55.59314 30.33936 56.69362ZM28.3468 56.69362"/>
<path transform="matrix(1,0,0,-1,14.376999,71.06999)" stroke-width=".3985" stroke-linecap="butt" stroke-miterlimit="10" stroke-linejoin="miter" fill="none" stroke="#000000" d="M0 56.69362H56.69362"/>
<path transform="matrix(1,0,0,-1,14.376999,71.06999)" stroke-width=".3985" stroke-linecap="butt" stroke-miterlimit="10" stroke-linejoin="miter" fill="none" stroke="#000000" d="M56.69362 0V56.69362"/>
<path transform="matrix(1,0,0,-1,14.376999,71.06999)" d="M58.68617 0C58.68617 1.10046 57.79408 1.99255 56.69362 1.99255 55.59314 1.99255 54.70107 1.10046 54.70107 0 54.70107-1.10046 55.59314-1.99255 56.69362-1.99255 57.79408-1.99255 58.68617-1.10046 58.68617 0ZM56.69362 0"/>
<path transform="matrix(1,0,0,-1,14.376999,71.06999)" stroke-width=".3985" stroke-linecap="butt" stroke-miterlimit="10" stroke-linejoin="miter" fill="none" stroke="#000000" d="M58.68617 0C58.68617 1.10046 57.79408 1.99255 56.69362 1.99255 55.59314 1.99255 54.70107 1.10046 54.70107 0 54.70107-1.10046 55.59314-1.99255 56.69362-1.99255 57.79408-1.99255 58.68617-1.10046 58.68617 0ZM56.69362 0"/>
<path transform="matrix(1,0,0,-1,14.376999,71.06999)" stroke-width=".3985" stroke-linecap="butt" stroke-miterlimit="10" stroke-linejoin="miter" fill="none" stroke="#000000" d="M0 0H56.69362"/>
<path transform="matrix(1,0,0,-1,14.376999,71.06999)" d="M58.68617 28.3468C58.68617 29.44728 57.79408 30.33936 56.69362 30.33936 55.59314 30.33936 54.70107 29.44728 54.70107 28.3468 54.70107 27.24634 55.59314 26.35425 56.69362 26.35425 57.79408 26.35425 58.68617 27.24634 58.68617 28.3468ZM56.69362 28.3468"/>
<path transform="matrix(1,0,0,-1,14.376999,71.06999)" stroke-width=".3985" stroke-linecap="butt" stroke-miterlimit="10" stroke-linejoin="miter" fill="none" stroke="#000000" d="M58.68617 28.3468C58.68617 29.44728 57.79408 30.33936 56.69362 30.33936 55.59314 30.33936 54.70107 29.44728 54.70107 28.3468 54.70107 27.24634 55.59314 26.35425 56.69362 26.35425 57.79408 26.35425 58.68617 27.24634 58.68617 28.3468ZM56.69362 28.3468"/>
<path transform="matrix(1,0,0,-1,14.376999,71.06999)" stroke-width=".3985" stroke-linecap="butt" stroke-miterlimit="10" stroke-linejoin="miter" fill="none" stroke="#000000" d="M0 28.3468H56.69362"/>
<path transform="matrix(1,0,0,-1,14.376999,71.06999)" d="M58.68617 56.69362C58.68617 57.79408 57.79408 58.68617 56.69362 58.68617 55.59314 58.68617 54.70107 57.79408 54.70107 56.69362 54.70107 55.59314 55.59314 54.70107 56.69362 54.70107 57.79408 54.70107 58.68617 55.59314 58.68617 56.69362ZM56.69362 56.69362"/>
<path transform="matrix(1,0,0,-1,14.376999,71.06999)" stroke-width=".3985" stroke-linecap="butt" stroke-miterlimit="10" stroke-linejoin="miter" fill="none" stroke="#000000" d="M58.68617 56.69362C58.68617 57.79408 57.79408 58.68617 56.69362 58.68617 55.59314 58.68617 54.70107 57.79408 54.70107 56.69362 54.70107 55.59314 55.59314 54.70107 56.69362 54.70107 57.79408 54.70107 58.68617 55.59314 58.68617 56.69362ZM56.69362 56.69362"/>
<path transform="matrix(1,0,0,-1,14.376999,71.06999)" stroke-width=".3985" stroke-linecap="butt" stroke-miterlimit="10" stroke-linejoin="miter" fill="none" stroke="#000000" d="M0 56.69362H56.69362"/>
<path transform="matrix(1,0,0,-1,14.376999,71.06999)" stroke-width=".3985" stroke-linecap="butt" stroke-miterlimit="10" stroke-linejoin="miter" fill="none" stroke="#000000" d="M28.3468 0V0"/>
<text xml:space="preserve" transform="matrix(1 0 -0 1 0 86.80699)" font-size="4.9813" font-family="CMMI5" font-style="italic"><tspan y="-8.135" x="22.869">P</tspan></text>
<text xml:space="preserve" transform="matrix(1 0 -0 1 0 86.80699)" font-size="4.9813" font-family="CMR5"><tspan y="-6.6410005" x="27.229">2</tspan></text>
<text xml:space="preserve" transform="matrix(1 0 -0 1 0 86.80699)" font-size="4.9813" font-family="MSAM5"><tspan y="-8.135" x="31.117">&#x25a1;</tspan></text>
<text xml:space="preserve" transform="matrix(1 0 -0 1 0 86.80699)" font-size="4.9813" font-family="CMMI5" font-style="italic"><tspan y="-8.135" x="36.514">P</tspan></text>
<text xml:space="preserve" transform="matrix(1 0 -0 1 0 86.80699)" font-size="4.9813" font-family="CMR5"><tspan y="-6.6410005" x="40.874">2</tspan><tspan y="-8.135" x="44.763 49.883779 51.891244 55.457857 58.85012">+loop</tspan></text>
<path transform="matrix(1,0,0,-1,14.376999,71.06999)" stroke-width=".3985" stroke-linecap="butt" stroke-miterlimit="10" stroke-linejoin="miter" fill="none" stroke="#000000" d="M0 56.69362C-10.85733 65.80414 9.11052 67.55095 0 56.69362"/>
</svg>
